<?xml version="1.0" encoding="utf-8"?>
<!-- Generator: Adobe Illustrator 25.0.1, SVG Export Plug-In . SVG Version: 6.00 Build 0)  -->
<svg version="1.1" id="Слой_1" xmlns="http://www.w3.org/2000/svg" xmlns:xlink="http://www.w3.org/1999/xlink" x="0px" y="0px"
	 viewBox="0 0 595.28 841.89" style="enable-background:new 0 0 595.28 841.89;" xml:space="preserve">
<style type="text/css">
	.st0{fill:#05052D;}
	.st1{fill:#FFFFFF;}
</style>
<g>
	<path class="st1" d="M340.27,288.04v4.13h0.01v92.63c0,0.02,0.01,0.03,0.01,0.04v30.59h0c0,1.13,0,2.25,0,3.38
		c-4.74,0-9.48,0-14.21,0l-1.93-2.3h-0.01l-50.88-60.5c-0.65-0.72-1.29-1.44-1.94-2.16c1.11-1.25,2.23-2.5,3.34-3.75l50-59.46
		c0.76-0.88,1.52-1.75,2.28-2.63c-1.03,0-2.06,0-3.09,0h-0.24h-50.76l-31.49,37.4l0,0c-1.78,2.14-3.56,4.28-5.34,6.41
		c-5.54-0.03-11.08-0.06-16.62-0.1c0-0.5,0-1,0-1.49c0-0.02-0.01-0.04-0.01-0.07v-31.86h0.01v-10.3h-10.3v0h-31.68
		c-0.02,0-0.03,0-0.05,0h-2.59v10.3h0V408c-0.06,0.17-0.11,0.35-0.11,0.54v85.19h-0.01v11.78h44.9v-2.31c0-0.03,0.01-0.06,0.01-0.09
		v-94.57c0-0.28-0.07-0.53-0.19-0.77V382.3l-0.05-0.01c-0.01-1.69-0.02-3.39-0.02-5.08c5.57,0,11.13,0.01,16.7,0.01l8.06,9.61l0,0
		l42.17,50.15c0.78,0.87,1.55,1.73,2.33,2.6c-0.98,1.09-1.95,2.19-2.93,3.28l-47.95,57.01c-1.62,1.88-3.24,3.76-4.86,5.64h53.67
		l2.62-2.67c0.18-0.17,0.35-0.35,0.52-0.53l0.2-0.21l-0.01,0c0.07-0.08,0.14-0.15,0.21-0.23l25.74-30.51l-0.05,0.01l8.06-9.61
		c5.57,0,11.13-0.01,16.7-0.01c0,0.91-0.01,1.81-0.01,2.72v18.63h-0.02v22.41h44.67V483.1h-0.04v-40.76h0.04v-57.32
		c0.02-0.07,0.04-0.15,0.04-0.22v-92.63h0.01v-4.13H340.27z"/>
	<polygon class="st1" points="193.9,529.56 186.69,529.56 180.62,538.02 180.62,529.56 174.67,529.56 174.67,553.36 180.62,553.36 
		180.62,542.41 188.33,553.36 195.64,553.36 185.78,540 	"/>
	<path class="st1" d="M212.06,529.56l-4.9,9.73l-5.1-9.73h-6.69l8.57,15.47c-0.81,1.25-1.63,2.47-2.77,2.47
		c-0.63,0-1.25-0.28-1.78-0.61l-3.02,5.06c1.41,0.91,2.97,1.44,4.67,1.44c4.9,0,6.76-3.44,8.9-7.45l8.78-16.39H212.06z"/>
	<path class="st1" d="M238.11,545.74c0-2.26-1.28-4.08-3.3-5.36c1.31-0.9,2.09-2.08,2.09-3.72c0-3.85-3.92-7.12-8.98-7.12
		c-2.54,0-5.56,0.88-8.7,3.02l3.15,4.28c1.98-1.48,3.72-1.96,5.2-1.96c1.99,0,3.44,0.78,3.44,1.78c0,1.51-1.84,1.58-3.77,1.58h-3.82
		v5.25h3.83c2.01,0,4.91,0.17,4.91,2.26c0,1.23-1.83,2.21-3.95,2.17c-2.21-0.05-4.43-1.18-6.61-3.04l-3.44,4.18
		c3.64,3.1,7.34,4.32,10.43,4.3C233.92,553.35,238.11,549.66,238.11,545.74z"/>
	<polygon class="st1" points="241.19,529.56 241.19,553.36 247.17,553.36 247.17,543.05 256.32,543.05 256.32,553.36 262.29,553.36 
		262.29,529.56 256.32,529.56 256.32,537.58 247.17,537.58 247.17,529.56 	"/>
	<polygon class="st1" points="266.61,553.36 283.84,553.36 283.84,547.88 272.55,547.88 272.55,543.05 281.09,543.05 281.09,537.72 
		272.55,537.72 272.55,534.97 283.84,534.97 283.84,529.56 266.61,529.56 	"/>
	<polygon class="st1" points="287.51,529.56 287.51,553.36 305.81,553.36 305.81,558.26 311.77,558.26 311.77,547.88 308.46,547.88 
		308.46,529.56 302.52,529.56 302.52,547.9 293.47,547.9 293.47,529.56 	"/>
	<path class="st1" d="M324.88,529.56c-7.04,0-12.17,5.2-12.17,11.9s5.13,11.9,12.17,11.9s12.17-5.2,12.17-11.9
		S331.92,529.56,324.88,529.56z M324.88,547.9c-3.79,0-6.13-2.84-6.13-6.44s2.34-6.46,6.13-6.46s6.13,2.86,6.13,6.46
		S328.67,547.9,324.88,547.9z"/>
	<path class="st1" d="M356.77,540.46c0.9-1.08,1.38-2.27,1.38-3.79c0-2.46-1.28-4.93-3.6-6.19c-1.15-0.63-2.49-0.93-5-0.93h-9.35
		v23.81h11.5c2.57,0,3.95-0.4,5.1-1.11c2.01-1.25,3.34-3.42,3.34-6.01C360.14,543.54,358.72,541.64,356.77,540.46z M346.1,534.82
		h3.67c0.75,0,1.1,0.07,1.41,0.2c0.73,0.3,1.29,0.93,1.29,1.78c0,0.88-0.58,1.49-1.29,1.78c-0.33,0.13-0.68,0.17-1.41,0.17h-3.67
		V534.82z M352.89,547.8c-0.35,0.13-0.73,0.2-1.51,0.2h-5.28v-4.25h5.26c0.81,0,1.2,0.07,1.53,0.2c0.8,0.32,1.39,1,1.39,1.93
		C354.28,546.82,353.65,547.49,352.89,547.8z"/>
	<path class="st1" d="M370.09,529.56l-9.38,23.81h6.33l1.26-3.59h9.3l1.28,3.59h6.31l-9.35-23.81H370.09z M370.25,544.45l2.71-7.62
		l2.69,7.62H370.25z"/>
	<path class="st1" d="M226.84,570.1h-6.66c-0.01,1.65-0.01,3.51-0.24,5.26c-0.19,1.49-0.56,2.91-1.23,4.03h-1.16v3.38h1.32v-2.16
		h8.11v2.16h1.3v-3.38h-1.44V570.1z M225.53,579.38h-5.41c0.65-1.25,0.95-2.58,1.14-3.93c0.19-1.43,0.21-2.85,0.21-4.13h4.06V579.38
		z"/>
	<path class="st1" d="M230.99,578.12v-8.02h-1.3v10.5h0.7l6.63-8.03v8.03h1.3v-10.5h-0.7C235.42,572.78,233.21,575.45,230.99,578.12
		z"/>
	<path class="st1" d="M245.93,574.87c0.86-0.38,1.3-1.06,1.3-1.93c0-1.47-1.33-2.84-3.56-2.84c-1.17,0-2.37,0.46-3.54,1.39
		l0.75,0.98c0.92-0.77,1.84-1.14,2.75-1.14c1.21,0,2.31,0.58,2.31,1.61c0,0.7-0.53,1.19-1.41,1.34c-0.26,0.05-0.56,0.07-1.07,0.07
		h-1.69v1.19h1.68c0.56,0,0.89,0.02,1.19,0.08c1.3,0.22,1.87,1.03,1.87,1.82c0,0.95-0.89,1.93-2.56,1.93
		c-1.18-0.01-2.34-0.53-3.46-1.63l-0.83,0.95c1.41,1.34,2.88,1.92,4.36,1.91c2.33,0,3.79-1.51,3.79-3.16
		C247.81,576.32,247.17,575.35,245.93,574.87z"/>
	<path class="st1" d="M252.65,570.1l-4.3,10.5h1.38l0.86-2.15h5.37l0.87,2.15h1.38l-4.28-10.5H252.65z M251.08,577.24l2.21-5.51
		l2.19,5.51H251.08z"/>
	<path class="st1" d="M264.87,567.47c-0.69,0.81-1.38,1.63-2.07,2.45c0.31,0.26,0.6,0.53,0.9,0.78c0.7-0.81,1.38-1.63,2.07-2.45
		C265.47,567.99,265.17,567.72,264.87,567.47z"/>
	<path class="st1" d="M260.72,578.12v-8.02h-1.3v10.5h0.7l6.63-8.03v8.03h1.3v-10.5h-0.7C265.14,572.78,262.93,575.45,260.72,578.12
		z"/>
	<polygon class="st1" points="277.28,574.25 271.47,574.25 271.47,570.1 270.16,570.1 270.16,580.61 271.47,580.61 271.47,575.47 
		277.28,575.47 277.28,580.61 278.59,580.61 278.59,570.1 277.28,570.1 	"/>
	<path class="st1" d="M290.89,574.89c-0.41-0.2-0.86-0.31-1.6-0.31h-3.25v-3.26h5.62v-1.23h-6.94v10.51h4.56
		c0.74,0,1.2-0.11,1.61-0.32c1.02-0.45,1.68-1.46,1.68-2.7C292.58,576.37,291.92,575.36,290.89,574.89z M290.2,579.22
		c-0.25,0.1-0.52,0.16-1.05,0.16h-3.11v-3.58h3.11c0.53,0,0.8,0.04,1.05,0.15c0.64,0.26,1.1,0.86,1.1,1.64
		C291.29,578.37,290.84,578.95,290.2,579.22z"/>
	<path class="st1" d="M302.34,570.1c-2.83,0-5,1.97-5.3,4.63h-1.51v-4.63h-1.31v10.51h1.31v-4.65h1.51c0.29,2.68,2.45,4.65,5.3,4.65
		c3.04,0,5.32-2.28,5.32-5.26C307.66,572.38,305.38,570.1,302.34,570.1z M302.34,579.37c-2.33,0-4.01-1.73-4.01-4.02
		c0-2.29,1.68-4.01,4.01-4.01s4,1.73,4,4.01C306.34,577.64,304.67,579.37,302.34,579.37z"/>
	<path class="st1" d="M315.52,570.41c-0.4-0.19-0.85-0.3-1.57-0.3h-4.68v10.5h1.3v-4.71h3.38c0.72,0,1.18-0.11,1.57-0.3
		c0.99-0.46,1.63-1.43,1.63-2.59C317.13,571.82,316.5,570.86,315.52,570.41z M314.81,574.54c-0.24,0.09-0.5,0.15-1.01,0.15h-3.24
		v-3.35h3.23c0.51,0,0.78,0.05,1.02,0.15c0.6,0.25,1.03,0.8,1.03,1.52C315.84,573.74,315.41,574.28,314.81,574.54z"/>
	<path class="st1" d="M323.46,570.1c-3.04,0-5.33,2.29-5.33,5.25c0,2.98,2.29,5.26,5.33,5.26c3.05,0,5.32-2.28,5.32-5.26
		C328.79,572.38,326.51,570.1,323.46,570.1z M323.46,579.37c-2.33,0-4-1.73-4-4.02c0-2.29,1.67-4.01,4-4.01s4,1.73,4,4.01
		C327.46,577.64,325.79,579.37,323.46,579.37z"/>
</g>
</svg>
