<?xml version="1.0" encoding="utf-8"?>
<!-- Generator: Adobe Illustrator 25.0.1, SVG Export Plug-In . SVG Version: 6.00 Build 0)  -->
<svg version="1.1" id="Слой_1" xmlns="http://www.w3.org/2000/svg" xmlns:xlink="http://www.w3.org/1999/xlink" x="0px" y="0px"
	 viewBox="0 0 595.28 841.89" style="enable-background:new 0 0 595.28 841.89;" xml:space="preserve">
<style type="text/css">
	.st0{fill:#05052D;}
	.st1{fill:#FFFFFF;}
</style>
<g>
	<path class="st0" d="M365.4,287.27v4.13h0.01v92.63c0,0.02,0.01,0.03,0.01,0.04v30.59h0c0,1.13,0,2.25,0,3.38
		c-4.74,0-9.48,0-14.21,0l-1.93-2.3h-0.01l-50.88-60.5c-0.65-0.72-1.29-1.44-1.94-2.16c1.11-1.25,2.23-2.5,3.34-3.75l50-59.46
		c0.76-0.88,1.52-1.75,2.28-2.63c-1.03,0-2.06,0-3.09,0h-0.24h-50.76l-31.49,37.4l0,0c-1.78,2.14-3.56,4.28-5.34,6.41
		c-5.54-0.03-11.08-0.06-16.62-0.1c0-0.5,0-1,0-1.49c0-0.02-0.01-0.04-0.01-0.07v-31.86h0.01v-10.3h-10.3v0h-31.68
		c-0.02,0-0.03,0-0.05,0h-2.59v10.3h0v109.68c-0.06,0.17-0.11,0.35-0.11,0.54v85.19h-0.01v11.78h44.9v-2.31
		c0-0.03,0.01-0.06,0.01-0.09v-94.57c0-0.28-0.07-0.53-0.19-0.77v-25.47l-0.05-0.01c-0.01-1.69-0.02-3.39-0.02-5.08
		c5.57,0,11.13,0.01,16.7,0.01l8.06,9.61l0,0l42.17,50.15c0.78,0.87,1.55,1.73,2.33,2.6c-0.98,1.09-1.95,2.19-2.93,3.28
		l-47.95,57.01c-1.62,1.88-3.24,3.76-4.86,5.64h53.67l2.62-2.67c0.18-0.17,0.35-0.35,0.52-0.53l0.2-0.21l-0.01,0
		c0.07-0.08,0.14-0.15,0.21-0.23l25.74-30.51l-0.05,0.01l8.06-9.61c5.57,0,11.13-0.01,16.7-0.01c0,0.91-0.01,1.81-0.01,2.72v18.63
		h-0.02v22.41h44.67v-22.41h-0.04v-40.76h0.04v-57.32c0.02-0.07,0.04-0.15,0.04-0.22v-92.63h0.01v-4.13H365.4z"/>
	<polygon class="st0" points="219.03,528.78 211.82,528.78 205.75,537.25 205.75,528.78 199.8,528.78 199.8,552.59 205.75,552.59 
		205.75,541.63 213.47,552.59 220.77,552.59 210.91,539.22 	"/>
	<path class="st0" d="M237.19,528.78l-4.9,9.73l-5.1-9.73h-6.69l8.57,15.47c-0.81,1.25-1.63,2.47-2.77,2.47
		c-0.63,0-1.25-0.28-1.78-0.61l-3.02,5.06c1.41,0.91,2.97,1.44,4.67,1.44c4.9,0,6.76-3.44,8.9-7.45l8.78-16.39H237.19z"/>
	<path class="st0" d="M263.24,544.97c0-2.26-1.28-4.08-3.3-5.36c1.31-0.9,2.09-2.08,2.09-3.72c0-3.85-3.92-7.12-8.98-7.12
		c-2.54,0-5.56,0.88-8.7,3.02l3.15,4.28c1.98-1.48,3.72-1.96,5.2-1.96c1.99,0,3.44,0.78,3.44,1.78c0,1.51-1.84,1.58-3.77,1.58h-3.82
		v5.25h3.83c2.01,0,4.91,0.17,4.91,2.26c0,1.23-1.83,2.21-3.95,2.17c-2.21-0.05-4.43-1.18-6.61-3.04l-3.44,4.18
		c3.64,3.1,7.34,4.32,10.43,4.3C259.06,552.57,263.24,548.89,263.24,544.97z"/>
	<polygon class="st0" points="266.33,528.78 266.33,552.59 272.3,552.59 272.3,542.28 281.45,542.28 281.45,552.59 287.43,552.59 
		287.43,528.78 281.45,528.78 281.45,536.8 272.3,536.8 272.3,528.78 	"/>
	<polygon class="st0" points="291.74,552.59 308.98,552.59 308.98,547.11 297.69,547.11 297.69,542.28 306.22,542.28 306.22,536.95 
		297.69,536.95 297.69,534.19 308.98,534.19 308.98,528.78 291.74,528.78 	"/>
	<polygon class="st0" points="312.64,528.78 312.64,552.59 330.94,552.59 330.94,557.49 336.9,557.49 336.9,547.11 333.6,547.11 
		333.6,528.78 327.65,528.78 327.65,547.13 318.6,547.13 318.6,528.78 	"/>
	<path class="st0" d="M350.01,528.78c-7.04,0-12.17,5.2-12.17,11.9s5.13,11.9,12.17,11.9s12.17-5.2,12.17-11.9
		S357.05,528.78,350.01,528.78z M350.01,547.13c-3.79,0-6.13-2.84-6.13-6.44s2.34-6.46,6.13-6.46s6.13,2.86,6.13,6.46
		S353.8,547.13,350.01,547.13z"/>
	<path class="st0" d="M381.91,539.69c0.9-1.08,1.38-2.27,1.38-3.79c0-2.46-1.28-4.93-3.6-6.19c-1.15-0.63-2.49-0.93-5-0.93h-9.35
		v23.81h11.5c2.57,0,3.95-0.4,5.1-1.11c2.01-1.25,3.34-3.42,3.34-6.01C385.28,542.76,383.85,540.87,381.91,539.69z M371.23,534.05
		h3.67c0.75,0,1.1,0.07,1.41,0.2c0.73,0.3,1.29,0.93,1.29,1.78c0,0.88-0.58,1.49-1.29,1.78c-0.33,0.13-0.68,0.17-1.41,0.17h-3.67
		V534.05z M378.02,547.03c-0.35,0.13-0.73,0.2-1.51,0.2h-5.28v-4.25h5.26c0.81,0,1.2,0.07,1.53,0.2c0.8,0.32,1.39,1,1.39,1.93
		C379.42,546.05,378.79,546.71,378.02,547.03z"/>
	<path class="st0" d="M395.22,528.78l-9.38,23.81h6.33l1.26-3.59h9.3l1.28,3.59h6.31l-9.35-23.81H395.22z M395.39,543.67l2.71-7.62
		l2.69,7.62H395.39z"/>
	<path class="st0" d="M251.97,569.32h-6.66c-0.01,1.65-0.01,3.51-0.24,5.26c-0.19,1.49-0.56,2.91-1.23,4.03h-1.16v3.38H244v-2.16
		h8.11v2.16h1.3v-3.38h-1.44V569.32z M250.66,578.61h-5.41c0.65-1.25,0.95-2.58,1.14-3.93c0.19-1.43,0.21-2.85,0.21-4.13h4.06
		V578.61z"/>
	<path class="st0" d="M256.13,577.35v-8.02h-1.3v10.5h0.7l6.63-8.03v8.03h1.3v-10.5h-0.7C260.55,572,258.34,574.68,256.13,577.35z"
		/>
	<path class="st0" d="M271.07,574.09c0.86-0.38,1.3-1.06,1.3-1.93c0-1.47-1.33-2.84-3.56-2.84c-1.17,0-2.37,0.46-3.54,1.39
		l0.75,0.98c0.92-0.77,1.84-1.14,2.75-1.14c1.21,0,2.31,0.58,2.31,1.61c0,0.7-0.53,1.19-1.41,1.34c-0.26,0.05-0.56,0.07-1.07,0.07
		h-1.69v1.19h1.68c0.56,0,0.89,0.02,1.19,0.08c1.3,0.22,1.87,1.03,1.87,1.82c0,0.95-0.89,1.93-2.56,1.93
		c-1.18-0.01-2.34-0.53-3.46-1.63l-0.83,0.95c1.41,1.34,2.88,1.92,4.36,1.91c2.33,0,3.79-1.51,3.79-3.16
		C272.94,575.54,272.3,574.57,271.07,574.09z"/>
	<path class="st0" d="M277.78,569.33l-4.3,10.5h1.38l0.86-2.15h5.37l0.87,2.15h1.38l-4.28-10.5H277.78z M276.22,576.46l2.21-5.51
		l2.19,5.51H276.22z"/>
	<path class="st0" d="M285.85,577.35v-8.02h-1.3v10.5h0.7l6.63-8.03v8.03h1.3v-10.5h-0.7C290.27,572,288.06,574.68,285.85,577.35z"
		/>
	<path class="st0" d="M290,566.69c-0.69,0.81-1.38,1.63-2.07,2.45c0.31,0.26,0.6,0.53,0.9,0.78c0.7-0.81,1.38-1.63,2.07-2.45
		C290.6,567.21,290.3,566.95,290,566.69z"/>
	<polygon class="st0" points="302.41,573.48 296.6,573.48 296.6,569.32 295.29,569.32 295.29,579.83 296.6,579.83 296.6,574.7 
		302.41,574.7 302.41,579.83 303.72,579.83 303.72,569.32 302.41,569.32 	"/>
	<path class="st0" d="M316.02,574.12c-0.41-0.2-0.86-0.31-1.6-0.31h-3.25v-3.26h5.62v-1.23h-6.94v10.51h4.56
		c0.74,0,1.2-0.11,1.61-0.32c1.02-0.45,1.68-1.46,1.68-2.7C317.72,575.6,317.05,574.58,316.02,574.12z M315.33,578.45
		c-0.25,0.1-0.52,0.16-1.05,0.16h-3.11v-3.58h3.11c0.53,0,0.8,0.04,1.05,0.15c0.64,0.26,1.1,0.86,1.1,1.64
		C316.43,577.6,315.97,578.18,315.33,578.45z"/>
	<path class="st0" d="M327.47,569.32c-2.83,0-5,1.97-5.3,4.63h-1.51v-4.63h-1.31v10.51h1.31v-4.65h1.51
		c0.29,2.68,2.45,4.65,5.3,4.65c3.04,0,5.32-2.28,5.32-5.26C332.8,571.61,330.51,569.32,327.47,569.32z M327.47,578.6
		c-2.33,0-4.01-1.73-4.01-4.02c0-2.29,1.68-4.01,4.01-4.01s4,1.73,4,4.01C331.47,576.87,329.8,578.6,327.47,578.6z"/>
	<path class="st0" d="M340.65,569.63c-0.4-0.19-0.85-0.3-1.57-0.3h-4.68v10.5h1.3v-4.71h3.38c0.72,0,1.18-0.11,1.57-0.3
		c0.99-0.46,1.63-1.43,1.63-2.59C342.27,571.04,341.63,570.08,340.65,569.63z M339.94,573.76c-0.24,0.09-0.5,0.15-1.01,0.15h-3.24
		v-3.35h3.23c0.51,0,0.78,0.05,1.02,0.15c0.6,0.25,1.03,0.8,1.03,1.52C340.97,572.96,340.55,573.51,339.94,573.76z"/>
	<path class="st0" d="M348.6,569.32c-3.04,0-5.33,2.29-5.33,5.25c0,2.98,2.29,5.26,5.33,5.26c3.05,0,5.32-2.28,5.32-5.26
		C353.92,571.61,351.64,569.32,348.6,569.32z M348.6,578.6c-2.33,0-4-1.73-4-4.02c0-2.29,1.67-4.01,4-4.01s4,1.73,4,4.01
		C352.59,576.87,350.92,578.6,348.6,578.6z"/>
</g>
</svg>
